<?xml version="1.0" encoding="UTF-8" standalone="no"?>
<!DOCTYPE svg PUBLIC "-//W3C//DTD SVG 1.0//EN" "http://www.w3.org/TR/2001/PR-SVG-20010719/DTD/svg10.dtd">
<svg width="364cm" height="21cm" viewBox="100 148 7262 401" xmlns="http://www.w3.org/2000/svg" xmlns:xlink="http://www.w3.org/1999/xlink">
  <ellipse style="fill: #000000" cx="111" cy="209" rx="10" ry="10"/>
  <g>
    <rect style="fill: #ffffff" x="203" y="191" width="119.85" height="36" rx="10" ry="10"/>
    <rect style="fill: none; fill-opacity:0; stroke-width: 2; stroke: #000000" x="203" y="191" width="119.85" height="36" rx="10" ry="10"/>
    <text font-size="12.8" style="fill: #000000;text-anchor:middle;font-family:sans-serif;font-style:normal;font-weight:normal" x="262.925" y="213.8">
      <tspan x="262.925" y="213.8">Check OS Version</tspan>
    </text>
  </g>
  <g>
    <polyline style="fill: none; fill-opacity:0; stroke-width: 2; stroke: #000000" points="122.005,209 132.005,209 191.993,209 197.52,209 "/>
    <polyline style="fill: none; fill-opacity:0; stroke-width: 2; stroke: #000000" points="189.756,214 199.756,209 189.756,204 "/>
  </g>
  <g>
    <rect style="fill: #ffffff" x="1014" y="199" width="141.65" height="36" rx="10" ry="10"/>
    <rect style="fill: none; fill-opacity:0; stroke-width: 2; stroke: #000000" x="1014" y="199" width="141.65" height="36" rx="10" ry="10"/>
    <text font-size="12.8" style="fill: #000000;text-anchor:middle;font-family:sans-serif;font-style:normal;font-weight:normal" x="1084.83" y="221.8">
      <tspan x="1084.83" y="221.8">Set Package Manager</tspan>
    </text>
  </g>
  <g>
    <polyline style="fill: none; fill-opacity:0; stroke-width: 2; stroke: #000000" points="322.85,209 356.921,209 356.921,210 386.519,210 "/>
    <polyline style="fill: none; fill-opacity:0; stroke-width: 2; stroke: #000000" points="378.755,215 388.755,210 378.755,205 "/>
  </g>
  <g>
    <rect style="fill: #ffffff" x="1824" y="194" width="113.55" height="36" rx="10" ry="10"/>
    <rect style="fill: none; fill-opacity:0; stroke-width: 2; stroke: #000000" x="1824" y="194" width="113.55" height="36" rx="10" ry="10"/>
    <text font-size="12.8" style="fill: #000000;text-anchor:middle;font-family:sans-serif;font-style:normal;font-weight:normal" x="1880.78" y="216.8">
      <tspan x="1880.78" y="216.8">Install RabbitMQ</tspan>
    </text>
  </g>
  <g>
    <rect style="fill: #ffffff" x="1841" y="446" width="80" height="36" rx="10" ry="10"/>
    <rect style="fill: none; fill-opacity:0; stroke-width: 2; stroke: #000000" x="1841" y="446" width="80" height="36" rx="10" ry="10"/>
    <text font-size="12.8" style="fill: #000000;text-anchor:middle;font-family:sans-serif;font-style:normal;font-weight:normal" x="1881" y="468.8">
      <tspan x="1881" y="468.8">Exit</tspan>
    </text>
  </g>
  <g>
    <rect style="fill: #ffffff" x="392" y="192" width="144.1" height="36" rx="10" ry="10"/>
    <rect style="fill: none; fill-opacity:0; stroke-width: 2; stroke: #000000" x="392" y="192" width="144.1" height="36" rx="10" ry="10"/>
    <text font-size="12.8" style="fill: #000000;text-anchor:middle;font-family:sans-serif;font-style:normal;font-weight:normal" x="464.05" y="214.8">
      <tspan x="464.05" y="214.8">OS Successfuly Found</tspan>
    </text>
  </g>
  <g>
    <rect style="fill: #ffffff" x="172.5" y="306.9" width="146.95" height="36" rx="10" ry="10"/>
    <rect style="fill: none; fill-opacity:0; stroke-width: 2; stroke: #000000" x="172.5" y="306.9" width="146.95" height="36" rx="10" ry="10"/>
    <text font-size="12.8" style="fill: #000000;text-anchor:middle;font-family:sans-serif;font-style:normal;font-weight:normal" x="245.975" y="329.7">
      <tspan x="245.975" y="329.7">OS could not be found</tspan>
    </text>
  </g>
  <g>
    <polyline style="fill: none; fill-opacity:0; stroke-width: 2; stroke: #000000" points="262.925,228.009 262.925,266.95 245.975,266.95 245.975,301.419 "/>
    <polyline style="fill: none; fill-opacity:0; stroke-width: 2; stroke: #000000" points="240.975,293.655 245.975,303.655 250.975,293.655 "/>
  </g>
  <g>
    <rect style="fill: #ffffff" x="203.5" y="511.9" width="80" height="36" rx="10" ry="10"/>
    <rect style="fill: none; fill-opacity:0; stroke-width: 2; stroke: #000000" x="203.5" y="511.9" width="80" height="36" rx="10" ry="10"/>
    <text font-size="12.8" style="fill: #000000;text-anchor:middle;font-family:sans-serif;font-style:normal;font-weight:normal" x="243.5" y="534.7">
      <tspan x="243.5" y="534.7">Exit</tspan>
    </text>
  </g>
  <g>
    <polyline style="fill: none; fill-opacity:0; stroke-width: 2; stroke: #000000" points="245.975,343.893 245.975,424 243.4,424 243.4,423.472 "/>
    <polyline style="fill: none; fill-opacity:0; stroke-width: 2; stroke: #000000" points="248.4,431.236 243.4,421.236 238.4,431.236 "/>
  </g>
  <g>
    <rect style="fill: #ffffff" x="178" y="401" width="130.8" height="36" rx="10" ry="10"/>
    <rect style="fill: none; fill-opacity:0; stroke-width: 2; stroke: #ff0000" x="178" y="401" width="130.8" height="36" rx="10" ry="10"/>
    <text font-size="12.8" style="fill: #000000;text-anchor:middle;font-family:sans-serif;font-style:normal;font-weight:normal" x="243.4" y="423.8">
      <tspan x="243.4" y="423.8">DISPLAY CODE 101</tspan>
    </text>
  </g>
  <g>
    <polyline style="fill: none; fill-opacity:0; stroke-width: 2; stroke: #000000" points="243.4,437 243.4,473.945 243.5,473.945 243.5,506.419 "/>
    <polyline style="fill: none; fill-opacity:0; stroke-width: 2; stroke: #000000" points="238.5,498.655 243.5,508.655 248.5,498.655 "/>
  </g>
  <g>
    <rect style="fill: #ffffff" x="590.5" y="191.9" width="130.8" height="36" rx="10" ry="10"/>
    <rect style="fill: none; fill-opacity:0; stroke-width: 2; stroke: #ff0000" x="590.5" y="191.9" width="130.8" height="36" rx="10" ry="10"/>
    <text font-size="12.8" style="fill: #000000;text-anchor:middle;font-family:sans-serif;font-style:normal;font-weight:normal" x="655.9" y="214.7">
      <tspan x="655.9" y="214.7">DISPLAY CODE 100</tspan>
    </text>
  </g>
  <g>
    <polyline style="fill: none; fill-opacity:0; stroke-width: 2; stroke: #000000" points="536.1,210 563.3,210 563.3,209.9 586.028,209.9 "/>
    <polyline style="fill: none; fill-opacity:0; stroke-width: 2; stroke: #000000" points="578.264,214.9 588.264,209.9 578.264,204.9 "/>
  </g>
  <g>
    <rect style="fill: #ffffff" x="1281" y="199" width="135" height="36" rx="10" ry="10"/>
    <rect style="fill: none; fill-opacity:0; stroke-width: 2; stroke: #000000" x="1281" y="199" width="135" height="36" rx="10" ry="10"/>
    <text font-size="12.8" style="fill: #000000;text-anchor:middle;font-family:sans-serif;font-style:normal;font-weight:normal" x="1348.5" y="221.8">
      <tspan x="1348.5" y="221.8">Download RabbitMQ</tspan>
    </text>
  </g>
  <g>
    <rect style="fill: #ffffff" x="578" y="314" width="156.35" height="36" rx="10" ry="10"/>
    <rect style="fill: none; fill-opacity:0; stroke-width: 2; stroke: #000000" x="578" y="314" width="156.35" height="36" rx="10" ry="10"/>
    <text font-size="12.8" style="fill: #000000;text-anchor:middle;font-family:sans-serif;font-style:normal;font-weight:normal" x="656.175" y="336.8">
      <tspan x="656.175" y="336.8">Ask User if OS is correct</tspan>
    </text>
  </g>
  <g>
    <polyline style="fill: none; fill-opacity:0; stroke-width: 2; stroke: #000000" points="655.9,227.9 655.9,270.445 656.175,270.445 656.175,308.519 "/>
    <polyline style="fill: none; fill-opacity:0; stroke-width: 2; stroke: #000000" points="651.175,300.755 656.175,310.755 661.175,300.755 "/>
  </g>
  <g>
    <rect style="fill: #ffffff" x="616" y="465.75" width="80" height="36" rx="10" ry="10"/>
    <rect style="fill: none; fill-opacity:0; stroke-width: 2; stroke: #000000" x="616" y="465.75" width="80" height="36" rx="10" ry="10"/>
    <text font-size="12.8" style="fill: #000000;text-anchor:middle;font-family:sans-serif;font-style:normal;font-weight:normal" x="656" y="488.55">
      <tspan x="656" y="488.55">Set OS</tspan>
    </text>
  </g>
  <g>
    <polyline style="fill: none; fill-opacity:0; stroke-width: 2; stroke: #000000" points="656.175,351.009 656.175,407.875 656,407.875 656,460.269 "/>
    <polyline style="fill: none; fill-opacity:0; stroke-width: 2; stroke: #000000" points="651,452.505 656,462.505 661,452.505 "/>
    <text font-size="12.7998" style="fill: #000000;text-anchor:middle;font-family:sans-serif;font-style:normal;font-weight:normal" x="605" y="407.749">Answer = "Y"</text>
  </g>
  <g>
    <rect style="fill: #ffffff" x="787" y="394.75" width="191.55" height="36" rx="10" ry="10"/>
    <rect style="fill: none; fill-opacity:0; stroke-width: 2; stroke: #000000" x="787" y="394.75" width="191.55" height="36" rx="10" ry="10"/>
    <text font-size="12.8" style="fill: #000000;text-anchor:middle;font-family:sans-serif;font-style:normal;font-weight:normal" x="882.775" y="417.55">
      <tspan x="882.775" y="417.55">Ask User to select OS from list</tspan>
    </text>
  </g>
  <g>
    <polyline style="fill: none; fill-opacity:0; stroke-width: 2; stroke: #000000" points="735.36,332 760.677,332 760.677,412.75 781.522,412.75 "/>
    <polyline style="fill: none; fill-opacity:0; stroke-width: 2; stroke: #000000" points="773.758,417.75 783.758,412.75 773.758,407.75 "/>
    <text font-size="12.7998" style="fill: #000000;text-anchor:middle;font-family:sans-serif;font-style:normal;font-weight:normal" x="802.001" y="362.75">Answer = "N"</text>
  </g>
  <g>
    <polyline style="fill: none; fill-opacity:0; stroke-width: 2; stroke: #000000" points="882.774,394.75 880,394.75 880,332 739.8,332 "/>
    <polyline style="fill: none; fill-opacity:0; stroke-width: 2; stroke: #000000" points="747.564,327 737.564,332 747.564,337 "/>
  </g>
  <g>
    <polyline style="fill: none; fill-opacity:0; stroke-width: 2; stroke: #000000" points="696,483.75 990.386,483.75 990.386,217 1009.53,217 "/>
    <polyline style="fill: none; fill-opacity:0; stroke-width: 2; stroke: #000000" points="1001.76,222 1011.76,217 1001.76,212 "/>
  </g>
  <g>
    <polyline style="fill: none; fill-opacity:0; stroke-width: 2; stroke: #000000" points="1156.66,217 1166.66,217 1269.99,217 1275.52,217 "/>
    <polyline style="fill: none; fill-opacity:0; stroke-width: 2; stroke: #000000" points="1267.76,222 1277.76,217 1267.76,212 "/>
  </g>
  <g>
    <rect style="fill: #ffffff" x="1289.2" y="349.75" width="118" height="36" rx="10" ry="10"/>
    <rect style="fill: none; fill-opacity:0; stroke-width: 2; stroke: #ff0000" x="1289.2" y="349.75" width="118" height="36" rx="10" ry="10"/>
    <text font-size="12.8" style="fill: #000000;text-anchor:middle;font-family:sans-serif;font-style:normal;font-weight:normal" x="1348.2" y="372.55">
      <tspan x="1348.2" y="372.55">Display Code 103</tspan>
    </text>
  </g>
  <g>
    <polyline style="fill: none; fill-opacity:0; stroke-width: 2; stroke: #000000" points="1348.5,235 1348.5,291.87 1348.2,291.87 1348.2,344.269 "/>
    <polyline style="fill: none; fill-opacity:0; stroke-width: 2; stroke: #000000" points="1343.2,336.505 1348.2,346.505 1353.2,336.505 "/>
    <text font-size="12.7998" style="fill: #000000;text-anchor:middle;font-family:sans-serif;font-style:normal;font-weight:normal" x="1218.2" y="281.75">RabbitMq COULD NOT BE DOWNLOADED</text>
  </g>
  <g>
    <rect style="fill: #ffffff" x="1308.2" y="444.75" width="80" height="36" rx="10" ry="10"/>
    <rect style="fill: none; fill-opacity:0; stroke-width: 2; stroke: #000000" x="1308.2" y="444.75" width="80" height="36" rx="10" ry="10"/>
    <text font-size="12.8" style="fill: #000000;text-anchor:middle;font-family:sans-serif;font-style:normal;font-weight:normal" x="1348.2" y="467.55">
      <tspan x="1348.2" y="467.55">EXIT</tspan>
    </text>
  </g>
  <g>
    <polyline style="fill: none; fill-opacity:0; stroke-width: 2; stroke: #000000" points="1348.2,386.759 1348.2,396.759 1348.2,433.741 1348.2,439.269 "/>
    <polyline style="fill: none; fill-opacity:0; stroke-width: 2; stroke: #000000" points="1343.2,431.505 1348.2,441.505 1353.2,431.505 "/>
  </g>
  <g>
    <rect style="fill: #ffffff" x="1621.2" y="193.75" width="118" height="36" rx="10" ry="10"/>
    <rect style="fill: none; fill-opacity:0; stroke-width: 2; stroke: #ff0000" x="1621.2" y="193.75" width="118" height="36" rx="10" ry="10"/>
    <text font-size="12.8" style="fill: #000000;text-anchor:middle;font-family:sans-serif;font-style:normal;font-weight:normal" x="1680.2" y="216.55">
      <tspan x="1680.2" y="216.55">Display Code 102</tspan>
    </text>
  </g>
  <g>
    <polyline style="fill: none; fill-opacity:0; stroke-width: 2; stroke: #000000" points="1420.2,211.75 1430.2,211.75 1610.19,211.75 1615.72,211.75 "/>
    <polyline style="fill: none; fill-opacity:0; stroke-width: 2; stroke: #000000" points="1607.96,216.75 1617.96,211.75 1607.96,206.75 "/>
    <text font-size="12.7998" style="fill: #000000;text-anchor:middle;font-family:sans-serif;font-style:normal;font-weight:normal" x="1516.2" y="191.75">RabbitMQ Successfuly downloaded</text>
  </g>
  <g>
    <polyline style="fill: none; fill-opacity:0; stroke-width: 2; stroke: #000000" points="1740.21,211.75 1781.6,211.75 1781.6,212 1818.52,212 "/>
    <polyline style="fill: none; fill-opacity:0; stroke-width: 2; stroke: #000000" points="1810.76,217 1820.76,212 1810.76,207 "/>
  </g>
  <g>
    <rect style="fill: #ffffff" x="1821.8" y="348.75" width="118" height="36" rx="10" ry="10"/>
    <rect style="fill: none; fill-opacity:0; stroke-width: 2; stroke: #ff0000" x="1821.8" y="348.75" width="118" height="36" rx="10" ry="10"/>
    <text font-size="12.8" style="fill: #000000;text-anchor:middle;font-family:sans-serif;font-style:normal;font-weight:normal" x="1880.8" y="371.55">
      <tspan x="1880.8" y="371.55">Display Code 105</tspan>
    </text>
  </g>
  <g>
    <polyline style="fill: none; fill-opacity:0; stroke-width: 2; stroke: #000000" points="1880.78,230 1880.78,288.87 1880.8,288.87 1880.8,343.269 "/>
    <polyline style="fill: none; fill-opacity:0; stroke-width: 2; stroke: #000000" points="1875.8,335.505 1880.8,345.505 1885.8,335.505 "/>
    <text font-size="12.7998" style="fill: #000000;text-anchor:middle;font-family:sans-serif;font-style:normal;font-weight:normal" x="1766.8" y="334.25">RabbitMQ COULD NOT BE INSTALLED</text>
  </g>
  <g>
    <polyline style="fill: none; fill-opacity:0; stroke-width: 2; stroke: #000000" points="1880.8,384.75 1880.8,414.87 1881,414.87 1881,440.519 "/>
    <polyline style="fill: none; fill-opacity:0; stroke-width: 2; stroke: #000000" points="1876,432.755 1881,442.755 1886,432.755 "/>
  </g>
  <g>
    <rect style="fill: #ffffff" x="2068.8" y="193.75" width="118" height="36" rx="10" ry="10"/>
    <rect style="fill: none; fill-opacity:0; stroke-width: 2; stroke: #ff0000" x="2068.8" y="193.75" width="118" height="36" rx="10" ry="10"/>
    <text font-size="12.8" style="fill: #000000;text-anchor:middle;font-family:sans-serif;font-style:normal;font-weight:normal" x="2127.8" y="216.55">
      <tspan x="2127.8" y="216.55">Display Code 104</tspan>
    </text>
  </g>
  <g>
    <polyline style="fill: none; fill-opacity:0; stroke-width: 2; stroke: #000000" points="1937.55,212 2002.67,212 2002.67,211.75 2063.32,211.75 "/>
    <polyline style="fill: none; fill-opacity:0; stroke-width: 2; stroke: #000000" points="2055.56,216.75 2065.56,211.75 2055.56,206.75 "/>
    <text font-size="12.7998" style="fill: #000000;text-anchor:middle;font-family:sans-serif;font-style:normal;font-weight:normal" x="2014.31" y="187.75">RabbitMQ Successfully installed</text>
  </g>
  <g>
    <rect style="fill: #ffffff" x="2306.8" y="193.75" width="106.05" height="36" rx="10" ry="10"/>
    <rect style="fill: none; fill-opacity:0; stroke-width: 2; stroke: #000000" x="2306.8" y="193.75" width="106.05" height="36" rx="10" ry="10"/>
    <text font-size="12.8" style="fill: #000000;text-anchor:middle;font-family:sans-serif;font-style:normal;font-weight:normal" x="2359.83" y="216.55">
      <tspan x="2359.83" y="216.55">Start RabbitMQ</tspan>
    </text>
  </g>
  <g>
    <polyline style="fill: none; fill-opacity:0; stroke-width: 2; stroke: #000000" points="2186.8,211.75 2196.8,211.75 2295.79,211.75 2301.32,211.75 "/>
    <polyline style="fill: none; fill-opacity:0; stroke-width: 2; stroke: #000000" points="2293.56,216.75 2303.56,211.75 2293.56,206.75 "/>
  </g>
  <g>
    <rect style="fill: #ffffff" x="2301.8" y="334.75" width="118" height="36" rx="10" ry="10"/>
    <rect style="fill: none; fill-opacity:0; stroke-width: 2; stroke: #ff0000" x="2301.8" y="334.75" width="118" height="36" rx="10" ry="10"/>
    <text font-size="12.8" style="fill: #000000;text-anchor:middle;font-family:sans-serif;font-style:normal;font-weight:normal" x="2360.8" y="357.55">
      <tspan x="2360.8" y="357.55">Display Code 107</tspan>
    </text>
  </g>
  <g>
    <polyline style="fill: none; fill-opacity:0; stroke-width: 2; stroke: #000000" points="2359.83,230.759 2359.83,282.25 2360.8,282.25 2360.8,329.269 "/>
    <polyline style="fill: none; fill-opacity:0; stroke-width: 2; stroke: #000000" points="2355.8,321.505 2360.8,331.505 2365.8,321.505 "/>
    <text font-size="12.7998" style="fill: #000000;text-anchor:middle;font-family:sans-serif;font-style:normal;font-weight:normal" x="2256.3" y="325.25">RabbitMQ COULD NOT BE Started</text>
  </g>
  <g>
    <rect style="fill: #ffffff" x="2321.3" y="440.65" width="80" height="36" rx="10" ry="10"/>
    <rect style="fill: none; fill-opacity:0; stroke-width: 2; stroke: #000000" x="2321.3" y="440.65" width="80" height="36" rx="10" ry="10"/>
    <text font-size="12.8" style="fill: #000000;text-anchor:middle;font-family:sans-serif;font-style:normal;font-weight:normal" x="2361.3" y="463.45">
      <tspan x="2361.3" y="463.45">Exit</tspan>
    </text>
  </g>
  <g>
    <polyline style="fill: none; fill-opacity:0; stroke-width: 2; stroke: #000000" points="2360.8,370.75 2360.8,405.7 2361.3,405.7 2361.3,436.178 "/>
    <polyline style="fill: none; fill-opacity:0; stroke-width: 2; stroke: #000000" points="2356.3,428.414 2361.3,438.414 2366.3,428.414 "/>
  </g>
  <g>
    <rect style="fill: #ffffff" x="2541.3" y="194.65" width="118" height="36" rx="10" ry="10"/>
    <rect style="fill: none; fill-opacity:0; stroke-width: 2; stroke: #ff0000" x="2541.3" y="194.65" width="118" height="36" rx="10" ry="10"/>
    <text font-size="12.8" style="fill: #000000;text-anchor:middle;font-family:sans-serif;font-style:normal;font-weight:normal" x="2600.3" y="217.45">
      <tspan x="2600.3" y="217.45">Display Code 106</tspan>
    </text>
  </g>
  <g>
    <polyline style="fill: none; fill-opacity:0; stroke-width: 2; stroke: #000000" points="2412.85,211.75 2476.57,211.75 2476.57,212.65 2535.82,212.65 "/>
    <polyline style="fill: none; fill-opacity:0; stroke-width: 2; stroke: #000000" points="2528.06,217.65 2538.06,212.65 2528.06,207.65 "/>
    <text font-size="12.7998" style="fill: #000000;text-anchor:middle;font-family:sans-serif;font-style:normal;font-weight:normal" x="2466.57" y="182.2">RabbitMQ Successfully started</text>
  </g>
  <g>
    <rect style="fill: #ffffff" x="2791.8" y="194.75" width="160" height="36" rx="10" ry="10"/>
    <rect style="fill: none; fill-opacity:0; stroke-width: 2; stroke: #000000" x="2791.8" y="194.75" width="160" height="36" rx="10" ry="10"/>
    <text font-size="12.8" style="fill: #000000;text-anchor:middle;font-family:sans-serif;font-style:normal;font-weight:normal" x="2871.8" y="217.55">
      <tspan x="2871.8" y="217.55">Add RabbitMQ to startup</tspan>
    </text>
  </g>
  <g>
    <polyline style="fill: none; fill-opacity:0; stroke-width: 2; stroke: #000000" points="2659.3,212.65 2725.55,212.65 2725.55,212.75 2787.33,212.75 "/>
    <polyline style="fill: none; fill-opacity:0; stroke-width: 2; stroke: #000000" points="2779.56,217.75 2789.56,212.75 2779.56,207.75 "/>
  </g>
  <g>
    <polyline style="fill: none; fill-opacity:0; stroke-width: 2; stroke: #000000" points="2871.8,231.759 2871.8,281.755 2871.22,281.755 2871.22,327.278 "/>
    <polyline style="fill: none; fill-opacity:0; stroke-width: 2; stroke: #000000" points="2866.22,319.514 2871.22,329.514 2876.22,319.514 "/>
    <text font-size="12.7998" style="fill: #000000;text-anchor:middle;font-family:sans-serif;font-style:normal;font-weight:normal" x="2777.8" y="319.001">Could Not Add to Startup</text>
  </g>
  <g>
    <rect style="fill: #ff0000" x="2798.8" y="331.75" width="144.85" height="36" rx="10" ry="10"/>
    <rect style="fill: none; fill-opacity:0; stroke-width: 2; stroke: #000000" x="2798.8" y="331.75" width="144.85" height="36" rx="10" ry="10"/>
    <text font-size="12.8" style="fill: #000000;text-anchor:middle;font-family:sans-serif;font-style:normal;font-weight:normal" x="2871.22" y="354.55">
      <tspan x="2871.22" y="354.55">NEEDS STATUS CODE</tspan>
    </text>
  </g>
  <g>
    <rect style="fill: #ffffff" x="2830.8" y="442" width="80" height="36" rx="10" ry="10"/>
    <rect style="fill: none; fill-opacity:0; stroke-width: 2; stroke: #000000" x="2830.8" y="442" width="80" height="36" rx="10" ry="10"/>
    <text font-size="12.8" style="fill: #000000;text-anchor:middle;font-family:sans-serif;font-style:normal;font-weight:normal" x="2870.8" y="464.8">
      <tspan x="2870.8" y="464.8">Exit</tspan>
    </text>
  </g>
  <g>
    <polyline style="fill: none; fill-opacity:0; stroke-width: 2; stroke: #000000" points="2871.22,367.75 2871.22,404.37 2870.8,404.37 2870.8,436.519 "/>
    <polyline style="fill: none; fill-opacity:0; stroke-width: 2; stroke: #000000" points="2865.8,428.755 2870.8,438.755 2875.8,428.755 "/>
  </g>
  <g>
    <rect style="fill: #ff0000" x="3138.9" y="189.9" width="144.85" height="36" rx="10" ry="10"/>
    <rect style="fill: none; fill-opacity:0; stroke-width: 2; stroke: #000000" x="3138.9" y="189.9" width="144.85" height="36" rx="10" ry="10"/>
    <text font-size="12.8" style="fill: #000000;text-anchor:middle;font-family:sans-serif;font-style:normal;font-weight:normal" x="3211.32" y="212.7">
      <tspan x="3211.32" y="212.7">NEEDS STATUS CODE</tspan>
    </text>
  </g>
  <g>
    <polyline style="fill: none; fill-opacity:0; stroke-width: 2; stroke: #000000" points="2952.8,208 3045.35,208 3045.35,207.9 3133.42,207.9 "/>
    <polyline style="fill: none; fill-opacity:0; stroke-width: 2; stroke: #000000" points="3125.65,212.9 3135.65,207.9 3125.65,202.9 "/>
    <text font-size="12.7998" style="fill: #000000;text-anchor:middle;font-family:sans-serif;font-style:normal;font-weight:normal" x="3043.81" y="177.5">RabitMq Successfully Added to Startup</text>
  </g>
  <g>
    <rect style="fill: #ffffff" x="3413.8" y="186" width="114.15" height="36" rx="10" ry="10"/>
    <rect style="fill: none; fill-opacity:0; stroke-width: 2; stroke: #000000" x="3413.8" y="186" width="114.15" height="36" rx="10" ry="10"/>
    <text font-size="12.8" style="fill: #000000;text-anchor:middle;font-family:sans-serif;font-style:normal;font-weight:normal" x="3470.88" y="208.8">
      <tspan x="3470.88" y="208.8">Download Tile38</tspan>
    </text>
  </g>
  <g>
    <polyline style="fill: none; fill-opacity:0; stroke-width: 2; stroke: #000000" points="3286.8,204 3296.8,204 3402.79,204 3408.32,204 "/>
    <polyline style="fill: none; fill-opacity:0; stroke-width: 2; stroke: #000000" points="3400.56,209 3410.56,204 3400.56,199 "/>
  </g>
  <g>
    <rect style="fill: #ffffff" x="3391.8" y="327" width="157.3" height="36" rx="10" ry="10"/>
    <rect style="fill: none; fill-opacity:0; stroke-width: 2; stroke: #ff0000" x="3391.8" y="327" width="157.3" height="36" rx="10" ry="10"/>
    <text font-size="12.8" style="fill: #000000;text-anchor:middle;font-family:sans-serif;font-style:normal;font-weight:normal" x="3470.45" y="349.8">
      <tspan x="3470.45" y="349.8">Display Status Code 109</tspan>
    </text>
  </g>
  <g>
    <polyline style="fill: none; fill-opacity:0; stroke-width: 2; stroke: #000000" points="3470.88,222 3470.88,273.995 3470.45,273.995 3470.45,321.519 "/>
    <polyline style="fill: none; fill-opacity:0; stroke-width: 2; stroke: #000000" points="3465.45,313.755 3470.45,323.755 3475.45,313.755 "/>
    <text font-size="12.7998" style="fill: #000000;text-anchor:middle;font-family:sans-serif;font-style:normal;font-weight:normal" x="3372.29" y="309.249">Tile38 Could not be downloaded</text>
  </g>
  <g>
    <rect style="fill: #ffffff" x="3430.8" y="439.75" width="80" height="36" rx="10" ry="10"/>
    <rect style="fill: none; fill-opacity:0; stroke-width: 2; stroke: #000000" x="3430.8" y="439.75" width="80" height="36" rx="10" ry="10"/>
    <text font-size="12.8" style="fill: #000000;text-anchor:middle;font-family:sans-serif;font-style:normal;font-weight:normal" x="3470.8" y="462.55">
      <tspan x="3470.8" y="462.55">Exit</tspan>
    </text>
  </g>
  <g>
    <polyline style="fill: none; fill-opacity:0; stroke-width: 2; stroke: #000000" points="3470.45,364.009 3470.45,401.375 3470.8,401.375 3470.8,434.269 "/>
    <polyline style="fill: none; fill-opacity:0; stroke-width: 2; stroke: #000000" points="3465.8,426.505 3470.8,436.505 3475.8,426.505 "/>
  </g>
  <g>
    <rect style="fill: #ffffff" x="3686.8" y="185.75" width="157.3" height="36" rx="10" ry="10"/>
    <rect style="fill: none; fill-opacity:0; stroke-width: 2; stroke: #ff0000" x="3686.8" y="185.75" width="157.3" height="36" rx="10" ry="10"/>
    <text font-size="12.8" style="fill: #000000;text-anchor:middle;font-family:sans-serif;font-style:normal;font-weight:normal" x="3765.45" y="208.55">
      <tspan x="3765.45" y="208.55">Display Status Code 108</tspan>
    </text>
  </g>
  <g>
    <polyline style="fill: none; fill-opacity:0; stroke-width: 2; stroke: #000000" points="3527.95,204 3606.87,204 3606.87,203.75 3681.32,203.75 "/>
    <polyline style="fill: none; fill-opacity:0; stroke-width: 2; stroke: #000000" points="3673.55,208.75 3683.55,203.75 3673.55,198.75 "/>
    <text font-size="12.7998" style="fill: #000000;text-anchor:middle;font-family:sans-serif;font-style:normal;font-weight:normal" x="3612.79" y="172.75">Tile38 Successfully downloaded</text>
  </g>
  <g>
    <rect style="fill: #ffffff" x="3984.8" y="185.75" width="92.7" height="36" rx="10" ry="10"/>
    <rect style="fill: none; fill-opacity:0; stroke-width: 2; stroke: #000000" x="3984.8" y="185.75" width="92.7" height="36" rx="10" ry="10"/>
    <text font-size="12.8" style="fill: #000000;text-anchor:middle;font-family:sans-serif;font-style:normal;font-weight:normal" x="4031.15" y="208.55">
      <tspan x="4031.15" y="208.55">Install Tile38</tspan>
    </text>
  </g>
  <g>
    <polyline style="fill: none; fill-opacity:0; stroke-width: 2; stroke: #000000" points="3845.11,203.75 3855.11,203.75 3973.79,203.75 3979.32,203.75 "/>
    <polyline style="fill: none; fill-opacity:0; stroke-width: 2; stroke: #000000" points="3971.56,208.75 3981.56,203.75 3971.56,198.75 "/>
  </g>
  <g>
    <rect style="fill: #ffffff" x="3951.8" y="317.75" width="157.3" height="36" rx="10" ry="10"/>
    <rect style="fill: none; fill-opacity:0; stroke-width: 2; stroke: #ff0000" x="3951.8" y="317.75" width="157.3" height="36" rx="10" ry="10"/>
    <text font-size="12.8" style="fill: #000000;text-anchor:middle;font-family:sans-serif;font-style:normal;font-weight:normal" x="4030.45" y="340.55">
      <tspan x="4030.45" y="340.55">Display Status Code 111</tspan>
    </text>
  </g>
  <g>
    <polyline style="fill: none; fill-opacity:0; stroke-width: 2; stroke: #000000" points="4031.15,221.75 4031.15,269.245 4030.45,269.245 4030.45,312.269 "/>
    <polyline style="fill: none; fill-opacity:0; stroke-width: 2; stroke: #000000" points="4025.45,304.505 4030.45,314.505 4035.45,304.505 "/>
    <text font-size="12.7998" style="fill: #000000;text-anchor:middle;font-family:sans-serif;font-style:normal;font-weight:normal" x="3944.81" y="301.749">Tile38 could not be installed</text>
  </g>
  <g>
    <rect style="fill: #ffffff" x="3990.9" y="436.65" width="80" height="36" rx="10" ry="10"/>
    <rect style="fill: none; fill-opacity:0; stroke-width: 2; stroke: #000000" x="3990.9" y="436.65" width="80" height="36" rx="10" ry="10"/>
    <text font-size="12.8" style="fill: #000000;text-anchor:middle;font-family:sans-serif;font-style:normal;font-weight:normal" x="4030.9" y="459.45">
      <tspan x="4030.9" y="459.45">Exit</tspan>
    </text>
  </g>
  <g>
    <polyline style="fill: none; fill-opacity:0; stroke-width: 2; stroke: #000000" points="4030.45,353.75 4030.45,394.695 4030.9,394.695 4030.9,431.169 "/>
    <polyline style="fill: none; fill-opacity:0; stroke-width: 2; stroke: #000000" points="4025.9,423.405 4030.9,433.405 4035.9,423.405 "/>
  </g>
  <g>
    <rect style="fill: #ffffff" x="4213.9" y="186.65" width="157.3" height="36" rx="10" ry="10"/>
    <rect style="fill: none; fill-opacity:0; stroke-width: 2; stroke: #ff0000" x="4213.9" y="186.65" width="157.3" height="36" rx="10" ry="10"/>
    <text font-size="12.8" style="fill: #000000;text-anchor:middle;font-family:sans-serif;font-style:normal;font-weight:normal" x="4292.55" y="209.45">
      <tspan x="4292.55" y="209.45">Display Status Code 110</tspan>
    </text>
  </g>
  <g>
    <polyline style="fill: none; fill-opacity:0; stroke-width: 2; stroke: #000000" points="4078.49,203.75 4146.22,203.75 4146.22,204.65 4209.43,204.65 "/>
    <polyline style="fill: none; fill-opacity:0; stroke-width: 2; stroke: #000000" points="4201.66,209.65 4211.66,204.65 4201.66,199.65 "/>
    <text font-size="12.7998" style="fill: #000000;text-anchor:middle;font-family:sans-serif;font-style:normal;font-weight:normal" x="4136.22" y="174.2">Tile38 Successfully installed</text>
  </g>
  <g>
    <rect style="fill: #ffffff" x="4484.82" y="186.75" width="85.2" height="36" rx="10" ry="10"/>
    <rect style="fill: none; fill-opacity:0; stroke-width: 2; stroke: #000000" x="4484.82" y="186.75" width="85.2" height="36" rx="10" ry="10"/>
    <text font-size="12.8" style="fill: #000000;text-anchor:middle;font-family:sans-serif;font-style:normal;font-weight:normal" x="4527.42" y="209.55">
      <tspan x="4527.42" y="209.55">Start Tile38</tspan>
    </text>
  </g>
  <g>
    <polyline style="fill: none; fill-opacity:0; stroke-width: 2; stroke: #000000" points="4371.2,204.65 4427.51,204.65 4427.51,204.75 4479.34,204.75 "/>
    <polyline style="fill: none; fill-opacity:0; stroke-width: 2; stroke: #000000" points="4471.58,209.75 4481.58,204.75 4471.58,199.75 "/>
  </g>
  <g>
    <rect style="fill: #ffffff" x="4448.92" y="325.65" width="157.3" height="36" rx="10" ry="10"/>
    <rect style="fill: none; fill-opacity:0; stroke-width: 2; stroke: #ff0000" x="4448.92" y="325.65" width="157.3" height="36" rx="10" ry="10"/>
    <text font-size="12.8" style="fill: #000000;text-anchor:middle;font-family:sans-serif;font-style:normal;font-weight:normal" x="4527.57" y="348.45">
      <tspan x="4527.57" y="348.45">Display Status Code 113</tspan>
    </text>
  </g>
  <g>
    <polyline style="fill: none; fill-opacity:0; stroke-width: 2; stroke: #000000" points="4527.42,222.75 4527.42,273.695 4527.57,273.695 4527.57,320.169 "/>
    <polyline style="fill: none; fill-opacity:0; stroke-width: 2; stroke: #000000" points="4522.57,312.405 4527.57,322.405 4532.57,312.405 "/>
    <text font-size="12.7998" style="fill: #000000;text-anchor:middle;font-family:sans-serif;font-style:normal;font-weight:normal" x="4442.22" y="307.749">Tile38 Could not be started</text>
  </g>
  <g>
    <rect style="fill: #ffffff" x="4487.32" y="436.65" width="80" height="36" rx="10" ry="10"/>
    <rect style="fill: none; fill-opacity:0; stroke-width: 2; stroke: #000000" x="4487.32" y="436.65" width="80" height="36" rx="10" ry="10"/>
    <text font-size="12.8" style="fill: #000000;text-anchor:middle;font-family:sans-serif;font-style:normal;font-weight:normal" x="4527.32" y="459.45">
      <tspan x="4527.32" y="459.45">Exit</tspan>
    </text>
  </g>
  <g>
    <polyline style="fill: none; fill-opacity:0; stroke-width: 2; stroke: #000000" points="4527.57,361.65 4527.57,398.645 4527.32,398.645 4527.32,431.169 "/>
    <polyline style="fill: none; fill-opacity:0; stroke-width: 2; stroke: #000000" points="4522.32,423.405 4527.32,433.405 4532.32,423.405 "/>
  </g>
  <g>
    <rect style="fill: #ffffff" x="4681.32" y="185.65" width="157.3" height="36" rx="10" ry="10"/>
    <rect style="fill: none; fill-opacity:0; stroke-width: 2; stroke: #ff0000" x="4681.32" y="185.65" width="157.3" height="36" rx="10" ry="10"/>
    <text font-size="12.8" style="fill: #000000;text-anchor:middle;font-family:sans-serif;font-style:normal;font-weight:normal" x="4759.97" y="208.45">
      <tspan x="4759.97" y="208.45">Display Status Code 112</tspan>
    </text>
  </g>
  <g>
    <polyline style="fill: none; fill-opacity:0; stroke-width: 2; stroke: #000000" points="4570.02,204.75 4625.17,204.75 4625.17,203.65 4675.84,203.65 "/>
    <polyline style="fill: none; fill-opacity:0; stroke-width: 2; stroke: #000000" points="4668.07,208.65 4678.07,203.65 4668.07,198.65 "/>
    <text font-size="12.7998" style="fill: #000000;text-anchor:middle;font-family:sans-serif;font-style:normal;font-weight:normal" x="4615.17" y="174.2">Tile38 Started Successfully</text>
  </g>
  <g>
    <rect style="fill: #ffffff" x="4960.22" y="185.75" width="82.85" height="36" rx="10" ry="10"/>
    <rect style="fill: none; fill-opacity:0; stroke-width: 2; stroke: #000000" x="4960.22" y="185.75" width="82.85" height="36" rx="10" ry="10"/>
    <text font-size="12.8" style="fill: #000000;text-anchor:middle;font-family:sans-serif;font-style:normal;font-weight:normal" x="5001.64" y="208.55">
      <tspan x="5001.64" y="208.55">Start Client</tspan>
    </text>
  </g>
  <g>
    <polyline style="fill: none; fill-opacity:0; stroke-width: 2; stroke: #000000" points="4838.62,203.65 4898.92,203.65 4898.92,203.75 4954.74,203.75 "/>
    <polyline style="fill: none; fill-opacity:0; stroke-width: 2; stroke: #000000" points="4946.98,208.75 4956.98,203.75 4946.98,198.75 "/>
  </g>
  <g>
    <rect style="fill: #ffffff" x="5389.22" y="185.75" width="141.9" height="36" rx="10" ry="10"/>
    <rect style="fill: none; fill-opacity:0; stroke-width: 2; stroke: #000000" x="5389.22" y="185.75" width="141.9" height="36" rx="10" ry="10"/>
    <text font-size="12.8" style="fill: #000000;text-anchor:middle;font-family:sans-serif;font-style:normal;font-weight:normal" x="5460.17" y="208.55">
      <tspan x="5460.17" y="208.55">Create Test Webhook</tspan>
    </text>
  </g>
  <g>
    <rect style="fill: #ffffff" x="4923.32" y="317.65" width="157.3" height="36" rx="10" ry="10"/>
    <rect style="fill: none; fill-opacity:0; stroke-width: 2; stroke: #ff0000" x="4923.32" y="317.65" width="157.3" height="36" rx="10" ry="10"/>
    <text font-size="12.8" style="fill: #000000;text-anchor:middle;font-family:sans-serif;font-style:normal;font-weight:normal" x="5001.97" y="340.45">
      <tspan x="5001.97" y="340.45">Display Status Code 115</tspan>
    </text>
  </g>
  <g>
    <polyline style="fill: none; fill-opacity:0; stroke-width: 2; stroke: #000000" points="5001.64,221.75 5001.64,269.195 5001.97,269.195 5001.97,312.169 "/>
    <polyline style="fill: none; fill-opacity:0; stroke-width: 2; stroke: #000000" points="4996.97,304.405 5001.97,314.405 5006.97,304.405 "/>
    <text font-size="12.7998" style="fill: #000000;text-anchor:middle;font-family:sans-serif;font-style:normal;font-weight:normal" x="4911.22" y="306.749">Failed to Start Tile38 Client</text>
  </g>
  <g>
    <rect style="fill: #ffffff" x="4962.32" y="443.65" width="80" height="36" rx="10" ry="10"/>
    <rect style="fill: none; fill-opacity:0; stroke-width: 2; stroke: #000000" x="4962.32" y="443.65" width="80" height="36" rx="10" ry="10"/>
    <text font-size="12.8" style="fill: #000000;text-anchor:middle;font-family:sans-serif;font-style:normal;font-weight:normal" x="5002.32" y="466.45">
      <tspan x="5002.32" y="466.45">Exit</tspan>
    </text>
  </g>
  <g>
    <polyline style="fill: none; fill-opacity:0; stroke-width: 2; stroke: #000000" points="5001.97,354.659 5001.97,398.65 5002.32,398.65 5002.32,438.169 "/>
    <polyline style="fill: none; fill-opacity:0; stroke-width: 2; stroke: #000000" points="4997.32,430.405 5002.32,440.405 5007.32,430.405 "/>
  </g>
  <g>
    <rect style="fill: #ffffff" x="5138.32" y="185.65" width="157.3" height="36" rx="10" ry="10"/>
    <rect style="fill: none; fill-opacity:0; stroke-width: 2; stroke: #ff0000" x="5138.32" y="185.65" width="157.3" height="36" rx="10" ry="10"/>
    <text font-size="12.8" style="fill: #000000;text-anchor:middle;font-family:sans-serif;font-style:normal;font-weight:normal" x="5216.97" y="208.45">
      <tspan x="5216.97" y="208.45">Display Status Code 114</tspan>
    </text>
  </g>
  <g>
    <polyline style="fill: none; fill-opacity:0; stroke-width: 2; stroke: #000000" points="5043.07,203.75 5090.19,203.75 5090.19,203.65 5132.84,203.65 "/>
    <polyline style="fill: none; fill-opacity:0; stroke-width: 2; stroke: #000000" points="5125.07,208.65 5135.07,203.65 5125.07,198.65 "/>
  </g>
  <g>
    <polyline style="fill: none; fill-opacity:0; stroke-width: 2; stroke: #000000" points="5295.62,203.65 5341.92,203.65 5341.92,203.75 5383.74,203.75 "/>
    <polyline style="fill: none; fill-opacity:0; stroke-width: 2; stroke: #000000" points="5375.98,208.75 5385.98,203.75 5375.98,198.75 "/>
  </g>
  <g>
    <rect style="fill: #ffffff" x="5381.32" y="335.65" width="157.3" height="36" rx="10" ry="10"/>
    <rect style="fill: none; fill-opacity:0; stroke-width: 2; stroke: #ff0000" x="5381.32" y="335.65" width="157.3" height="36" rx="10" ry="10"/>
    <text font-size="12.8" style="fill: #000000;text-anchor:middle;font-family:sans-serif;font-style:normal;font-weight:normal" x="5459.97" y="358.45">
      <tspan x="5459.97" y="358.45">Display Status Code 117</tspan>
    </text>
  </g>
  <g>
    <rect style="fill: #ffffff" x="5420.32" y="440.65" width="80" height="36" rx="10" ry="10"/>
    <rect style="fill: none; fill-opacity:0; stroke-width: 2; stroke: #000000" x="5420.32" y="440.65" width="80" height="36" rx="10" ry="10"/>
    <text font-size="12.8" style="fill: #000000;text-anchor:middle;font-family:sans-serif;font-style:normal;font-weight:normal" x="5460.32" y="463.45">
      <tspan x="5460.32" y="463.45">Exit</tspan>
    </text>
  </g>
  <g>
    <polyline style="fill: none; fill-opacity:0; stroke-width: 2; stroke: #000000" points="5460.17,221.75 5460.17,278.195 5459.97,278.195 5459.97,330.169 "/>
    <polyline style="fill: none; fill-opacity:0; stroke-width: 2; stroke: #000000" points="5454.97,322.405 5459.97,332.405 5464.97,322.405 "/>
    <text font-size="12.7998" style="fill: #000000;text-anchor:middle;font-family:sans-serif;font-style:normal;font-weight:normal" x="5345.71" y="316.749">Tile38 Client could not create webhook</text>
  </g>
  <g>
    <polyline style="fill: none; fill-opacity:0; stroke-width: 2; stroke: #000000" points="5459.97,371.65 5459.97,405.645 5460.32,405.645 5460.32,435.169 "/>
    <polyline style="fill: none; fill-opacity:0; stroke-width: 2; stroke: #000000" points="5455.32,427.405 5460.32,437.405 5465.32,427.405 "/>
  </g>
  <g>
    <rect style="fill: #ffffff" x="5682.68" y="188.65" width="157.3" height="36" rx="10" ry="10"/>
    <rect style="fill: none; fill-opacity:0; stroke-width: 2; stroke: #ff0000" x="5682.68" y="188.65" width="157.3" height="36" rx="10" ry="10"/>
    <text font-size="12.8" style="fill: #000000;text-anchor:middle;font-family:sans-serif;font-style:normal;font-weight:normal" x="5761.33" y="211.45">
      <tspan x="5761.33" y="211.45">Display Status Code 116</tspan>
    </text>
  </g>
  <g>
    <polyline style="fill: none; fill-opacity:0; stroke-width: 2; stroke: #000000" points="5532.13,203.75 5606.9,203.75 5606.9,206.65 5677.2,206.65 "/>
    <polyline style="fill: none; fill-opacity:0; stroke-width: 2; stroke: #000000" points="5669.43,211.65 5679.43,206.65 5669.43,201.65 "/>
    <text font-size="12.7998" style="fill: #000000;text-anchor:middle;font-family:sans-serif;font-style:normal;font-weight:normal" x="5596.9" y="175.2">Tile38 client successfully created webhook</text>
  </g>
  <g>
    <rect style="fill: #ffffff" x="6009.72" y="188.75" width="222.2" height="36" rx="10" ry="10"/>
    <rect style="fill: none; fill-opacity:0; stroke-width: 2; stroke: #000000" x="6009.72" y="188.75" width="222.2" height="36" rx="10" ry="10"/>
    <text font-size="12.8" style="fill: #000000;text-anchor:middle;font-family:sans-serif;font-style:normal;font-weight:normal" x="6120.82" y="211.55">
      <tspan x="6120.82" y="211.55">Test if RabbitMQ sees Tile38 Queue</tspan>
    </text>
  </g>
  <g>
    <polyline style="fill: none; fill-opacity:0; stroke-width: 2; stroke: #000000" points="5840.99,206.65 5924.85,206.65 5924.85,206.75 6004.24,206.75 "/>
    <polyline style="fill: none; fill-opacity:0; stroke-width: 2; stroke: #000000" points="5996.48,211.75 6006.48,206.75 5996.48,201.75 "/>
  </g>
  <g>
    <rect style="fill: #ffffff" x="6041.82" y="333.65" width="157.3" height="36" rx="10" ry="10"/>
    <rect style="fill: none; fill-opacity:0; stroke-width: 2; stroke: #ff0000" x="6041.82" y="333.65" width="157.3" height="36" rx="10" ry="10"/>
    <text font-size="12.8" style="fill: #000000;text-anchor:middle;font-family:sans-serif;font-style:normal;font-weight:normal" x="6120.47" y="356.45">
      <tspan x="6120.47" y="356.45">Display Status Code 119</tspan>
    </text>
  </g>
  <g>
    <polyline style="fill: none; fill-opacity:0; stroke-width: 2; stroke: #000000" points="6120.82,224.75 6120.82,278.695 6120.47,278.695 6120.47,328.169 "/>
    <polyline style="fill: none; fill-opacity:0; stroke-width: 2; stroke: #000000" points="6115.47,320.405 6120.47,330.405 6125.47,320.405 "/>
    <text font-size="12.7998" style="fill: #000000;text-anchor:middle;font-family:sans-serif;font-style:normal;font-weight:normal" x="6012.71" y="321.749">RabbitMQ failed to find queue</text>
  </g>
  <g>
    <rect style="fill: #ffffff" x="6080.82" y="445.65" width="80" height="36" rx="10" ry="10"/>
    <rect style="fill: none; fill-opacity:0; stroke-width: 2; stroke: #000000" x="6080.82" y="445.65" width="80" height="36" rx="10" ry="10"/>
    <text font-size="12.8" style="fill: #000000;text-anchor:middle;font-family:sans-serif;font-style:normal;font-weight:normal" x="6120.82" y="468.45">
      <tspan x="6120.82" y="468.45">Exit</tspan>
    </text>
  </g>
  <g>
    <polyline style="fill: none; fill-opacity:0; stroke-width: 2; stroke: #000000" points="6120.47,369.65 6120.47,407.145 6120.82,407.145 6120.82,440.169 "/>
    <polyline style="fill: none; fill-opacity:0; stroke-width: 2; stroke: #000000" points="6115.82,432.405 6120.82,442.405 6125.82,432.405 "/>
  </g>
  <g>
    <rect style="fill: #ffffff" x="6382.82" y="188.65" width="157.3" height="36" rx="10" ry="10"/>
    <rect style="fill: none; fill-opacity:0; stroke-width: 2; stroke: #ff0000" x="6382.82" y="188.65" width="157.3" height="36" rx="10" ry="10"/>
    <text font-size="12.8" style="fill: #000000;text-anchor:middle;font-family:sans-serif;font-style:normal;font-weight:normal" x="6461.47" y="211.45">
      <tspan x="6461.47" y="211.45">Display Status Code 118</tspan>
    </text>
  </g>
  <g>
    <polyline style="fill: none; fill-opacity:0; stroke-width: 2; stroke: #000000" points="6231.92,206.75 6306.87,206.75 6306.87,206.65 6377.34,206.65 "/>
    <polyline style="fill: none; fill-opacity:0; stroke-width: 2; stroke: #000000" points="6369.57,211.65 6379.57,206.65 6369.57,201.65 "/>
    <text font-size="12.7998" style="fill: #000000;text-anchor:middle;font-family:sans-serif;font-style:normal;font-weight:normal" x="6296.87" y="176.7">RabbitMQ successfully found Tile38 Queue</text>
  </g>
  <g>
    <rect style="fill: #ffffff" x="6657.72" y="179.75" width="263.15" height="68" rx="10" ry="10"/>
    <rect style="fill: none; fill-opacity:0; stroke-width: 2; stroke: #000000" x="6657.72" y="179.75" width="263.15" height="68" rx="10" ry="10"/>
    <text font-size="12.8" style="fill: #000000;text-anchor:middle;font-family:sans-serif;font-style:normal;font-weight:normal" x="6789.3" y="202.55">
      <tspan x="6789.3" y="202.55">TODO: Need to add Database setup to this</tspan>
      <tspan x="6789.3" y="218.55">And status codes</tspan>
      <tspan x="6789.3" y="234.55"></tspan>
    </text>
  </g>
  <g>
    <polyline style="fill: none; fill-opacity:0; stroke-width: 2; stroke: #000000" points="6540.12,206.65 6598.42,206.65 6598.42,213.75 6652.24,213.75 "/>
    <polyline style="fill: none; fill-opacity:0; stroke-width: 2; stroke: #000000" points="6644.48,218.75 6654.48,213.75 6644.48,208.75 "/>
  </g>
  <g>
    <ellipse style="fill: #ffffff" cx="7345.72" cy="214.75" rx="15" ry="15"/>
    <ellipse style="fill: none; fill-opacity:0; stroke-width: 2; stroke: #000000" cx="7345.72" cy="214.75" rx="15" ry="15"/>
    <ellipse style="fill: #000000" cx="7345.72" cy="214.75" rx="10" ry="10"/>
  </g>
  <g>
    <rect style="fill: #ffffff" x="6954.72" y="200.75" width="336.25" height="36" rx="10" ry="10"/>
    <rect style="fill: none; fill-opacity:0; stroke-width: 2; stroke: #000000" x="6954.72" y="200.75" width="336.25" height="36" rx="10" ry="10"/>
    <text font-size="12.8" style="fill: #000000;text-anchor:middle;font-family:sans-serif;font-style:normal;font-weight:normal" x="7122.84" y="223.55">
      <tspan x="7122.84" y="223.55">SET MAIN MAPPING APP FILE TO AUTO RUN AT START</tspan>
    </text>
  </g>
  <g>
    <polyline style="fill: none; fill-opacity:0; stroke-width: 2; stroke: #000000" points="6920.87,213.75 6950.87,213.75 6950.87,169.741 7122.84,169.741 7122.84,195.269 "/>
    <polyline style="fill: none; fill-opacity:0; stroke-width: 2; stroke: #000000" points="7117.84,187.505 7122.84,197.505 7127.84,187.505 "/>
  </g>
  <g>
    <polyline style="fill: none; fill-opacity:0; stroke-width: 2; stroke: #000000" points="7290.97,218.75 7320.97,218.75 7320.97,260.758 7345.72,260.758 7345.72,235.23 "/>
    <polyline style="fill: none; fill-opacity:0; stroke-width: 2; stroke: #000000" points="7350.72,242.994 7345.72,232.994 7340.72,242.994 "/>
  </g>
</svg>
